<svg width="547" height="51" viewBox="0 0 547 51" fill="none" xmlns="http://www.w3.org/2000/svg">
<line x1="365.5" y1="23" x2="365.5" y2="51" stroke="#DFDFDF"/>
<line x1="182.5" y1="23" x2="182.5" y2="51" stroke="#DFDFDF"/>
<circle cx="365.5" cy="11.5" r="11" stroke="#DFDFDF"/>
<circle cx="182.5" cy="11.5" r="11" stroke="#DFDFDF"/>
<path d="M39.5859 11.7578H36.625V10.2031H39.5859C40.1016 10.2031 40.5182 10.1198 40.8359 9.95312C41.1536 9.78646 41.3854 9.55729 41.5312 9.26562C41.6823 8.96875 41.7578 8.63021 41.7578 8.25C41.7578 7.89062 41.6823 7.55469 41.5312 7.24219C41.3854 6.92448 41.1536 6.66927 40.8359 6.47656C40.5182 6.28385 40.1016 6.1875 39.5859 6.1875H37.2266V16H35.2656V4.625H39.5859C40.4661 4.625 41.2135 4.78125 41.8281 5.09375C42.4479 5.40104 42.9193 5.82812 43.2422 6.375C43.5651 6.91667 43.7266 7.53646 43.7266 8.23438C43.7266 8.96875 43.5651 9.59896 43.2422 10.125C42.9193 10.651 42.4479 11.0547 41.8281 11.3359C41.2135 11.6172 40.4661 11.7578 39.5859 11.7578ZM47.1875 9.15625V16H45.3047V7.54688H47.1016L47.1875 9.15625ZM49.7734 7.49219L49.7578 9.24219C49.6432 9.22135 49.5182 9.20573 49.3828 9.19531C49.2526 9.1849 49.1224 9.17969 48.9922 9.17969C48.6693 9.17969 48.3854 9.22656 48.1406 9.32031C47.8958 9.40885 47.6901 9.53906 47.5234 9.71094C47.362 9.8776 47.237 10.0807 47.1484 10.3203C47.0599 10.5599 47.0078 10.8281 46.9922 11.125L46.5625 11.1562C46.5625 10.625 46.6146 10.1328 46.7188 9.67969C46.8229 9.22656 46.9792 8.82812 47.1875 8.48438C47.401 8.14062 47.6667 7.8724 47.9844 7.67969C48.3073 7.48698 48.6797 7.39062 49.1016 7.39062C49.2161 7.39062 49.3385 7.40104 49.4688 7.42188C49.6042 7.44271 49.7057 7.46615 49.7734 7.49219ZM50.3906 11.8672V11.6875C50.3906 11.0781 50.4792 10.513 50.6562 9.99219C50.8333 9.46615 51.0885 9.01042 51.4219 8.625C51.7604 8.23438 52.1719 7.93229 52.6562 7.71875C53.1458 7.5 53.6979 7.39062 54.3125 7.39062C54.9323 7.39062 55.4844 7.5 55.9688 7.71875C56.4583 7.93229 56.8724 8.23438 57.2109 8.625C57.5495 9.01042 57.8073 9.46615 57.9844 9.99219C58.1615 10.513 58.25 11.0781 58.25 11.6875V11.8672C58.25 12.4766 58.1615 13.0417 57.9844 13.5625C57.8073 14.0833 57.5495 14.5391 57.2109 14.9297C56.8724 15.3151 56.4609 15.6172 55.9766 15.8359C55.4922 16.0495 54.9427 16.1562 54.3281 16.1562C53.7083 16.1562 53.1536 16.0495 52.6641 15.8359C52.1797 15.6172 51.7682 15.3151 51.4297 14.9297C51.0911 14.5391 50.8333 14.0833 50.6562 13.5625C50.4792 13.0417 50.3906 12.4766 50.3906 11.8672ZM52.2734 11.6875V11.8672C52.2734 12.2474 52.3125 12.6068 52.3906 12.9453C52.4688 13.2839 52.5911 13.5807 52.7578 13.8359C52.9245 14.0911 53.138 14.2917 53.3984 14.4375C53.6589 14.5833 53.9688 14.6562 54.3281 14.6562C54.6771 14.6562 54.9792 14.5833 55.2344 14.4375C55.4948 14.2917 55.7083 14.0911 55.875 13.8359C56.0417 13.5807 56.1641 13.2839 56.2422 12.9453C56.3255 12.6068 56.3672 12.2474 56.3672 11.8672V11.6875C56.3672 11.3125 56.3255 10.9583 56.2422 10.625C56.1641 10.2865 56.0391 9.98698 55.8672 9.72656C55.7005 9.46615 55.487 9.26302 55.2266 9.11719C54.9714 8.96615 54.6667 8.89062 54.3125 8.89062C53.9583 8.89062 53.651 8.96615 53.3906 9.11719C53.1354 9.26302 52.9245 9.46615 52.7578 9.72656C52.5911 9.98698 52.4688 10.2865 52.3906 10.625C52.3125 10.9583 52.2734 11.3125 52.2734 11.6875ZM63.2812 14.6562C63.5885 14.6562 63.8646 14.5964 64.1094 14.4766C64.3594 14.3516 64.5599 14.1797 64.7109 13.9609C64.8672 13.7422 64.9531 13.4896 64.9688 13.2031H66.7422C66.7318 13.75 66.5703 14.2474 66.2578 14.6953C65.9453 15.1432 65.5312 15.5 65.0156 15.7656C64.5 16.026 63.9297 16.1562 63.3047 16.1562C62.6589 16.1562 62.0964 16.0469 61.6172 15.8281C61.138 15.6042 60.7396 15.2969 60.4219 14.9062C60.1042 14.5156 59.8646 14.0651 59.7031 13.5547C59.5469 13.0443 59.4688 12.4974 59.4688 11.9141V11.6406C59.4688 11.0573 59.5469 10.5104 59.7031 10C59.8646 9.48438 60.1042 9.03125 60.4219 8.64062C60.7396 8.25 61.138 7.94531 61.6172 7.72656C62.0964 7.5026 62.6562 7.39062 63.2969 7.39062C63.974 7.39062 64.5677 7.52604 65.0781 7.79688C65.5885 8.0625 65.9896 8.4349 66.2812 8.91406C66.5781 9.38802 66.7318 9.9401 66.7422 10.5703H64.9688C64.9531 10.2578 64.875 9.97656 64.7344 9.72656C64.599 9.47135 64.4062 9.26823 64.1562 9.11719C63.9115 8.96615 63.6172 8.89062 63.2734 8.89062C62.8932 8.89062 62.5781 8.96875 62.3281 9.125C62.0781 9.27604 61.8828 9.48438 61.7422 9.75C61.6016 10.0104 61.5 10.3047 61.4375 10.6328C61.3802 10.9557 61.3516 11.2917 61.3516 11.6406V11.9141C61.3516 12.263 61.3802 12.6016 61.4375 12.9297C61.4948 13.2578 61.5938 13.5521 61.7344 13.8125C61.8802 14.0677 62.0781 14.2734 62.3281 14.4297C62.5781 14.5807 62.8958 14.6562 63.2812 14.6562ZM71.9141 16.1562C71.2891 16.1562 70.724 16.0547 70.2188 15.8516C69.7188 15.6432 69.2917 15.3542 68.9375 14.9844C68.5885 14.6146 68.3203 14.1797 68.1328 13.6797C67.9453 13.1797 67.8516 12.6406 67.8516 12.0625V11.75C67.8516 11.0885 67.9479 10.4896 68.1406 9.95312C68.3333 9.41667 68.6016 8.95833 68.9453 8.57812C69.2891 8.19271 69.6953 7.89844 70.1641 7.69531C70.6328 7.49219 71.1406 7.39062 71.6875 7.39062C72.2917 7.39062 72.8203 7.49219 73.2734 7.69531C73.7266 7.89844 74.1016 8.1849 74.3984 8.55469C74.7005 8.91927 74.9245 9.35417 75.0703 9.85938C75.2214 10.3646 75.2969 10.9219 75.2969 11.5312V12.3359H68.7656V10.9844H73.4375V10.8359C73.4271 10.4974 73.3594 10.1797 73.2344 9.88281C73.1146 9.58594 72.9297 9.34635 72.6797 9.16406C72.4297 8.98177 72.0964 8.89062 71.6797 8.89062C71.3672 8.89062 71.0885 8.95833 70.8438 9.09375C70.6042 9.22396 70.4036 9.41406 70.2422 9.66406C70.0807 9.91406 69.9557 10.2161 69.8672 10.5703C69.7839 10.9193 69.7422 11.3125 69.7422 11.75V12.0625C69.7422 12.4323 69.7917 12.776 69.8906 13.0938C69.9948 13.4062 70.1458 13.6797 70.3438 13.9141C70.5417 14.1484 70.7812 14.3333 71.0625 14.4688C71.3438 14.599 71.6641 14.6641 72.0234 14.6641C72.4766 14.6641 72.8802 14.5729 73.2344 14.3906C73.5885 14.2083 73.8958 13.9505 74.1562 13.6172L75.1484 14.5781C74.9661 14.8438 74.7292 15.099 74.4375 15.3438C74.1458 15.5833 73.7891 15.7786 73.3672 15.9297C72.9505 16.0807 72.4661 16.1562 71.9141 16.1562ZM81.5078 13.7109C81.5078 13.5234 81.4609 13.3542 81.3672 13.2031C81.2734 13.0469 81.0938 12.9062 80.8281 12.7812C80.5677 12.6562 80.1823 12.5417 79.6719 12.4375C79.224 12.3385 78.8125 12.2214 78.4375 12.0859C78.0677 11.9453 77.75 11.776 77.4844 11.5781C77.2188 11.3802 77.013 11.1458 76.8672 10.875C76.7214 10.6042 76.6484 10.2917 76.6484 9.9375C76.6484 9.59375 76.724 9.26823 76.875 8.96094C77.026 8.65365 77.2422 8.38281 77.5234 8.14844C77.8047 7.91406 78.1458 7.72917 78.5469 7.59375C78.9531 7.45833 79.4062 7.39062 79.9062 7.39062C80.6146 7.39062 81.2214 7.51042 81.7266 7.75C82.237 7.98438 82.6276 8.30469 82.8984 8.71094C83.1693 9.11198 83.3047 9.5651 83.3047 10.0703H81.4219C81.4219 9.84635 81.3646 9.63802 81.25 9.44531C81.1406 9.2474 80.974 9.08854 80.75 8.96875C80.526 8.84375 80.2448 8.78125 79.9062 8.78125C79.5833 8.78125 79.3151 8.83333 79.1016 8.9375C78.8932 9.03646 78.737 9.16667 78.6328 9.32812C78.5339 9.48958 78.4844 9.66667 78.4844 9.85938C78.4844 10 78.5104 10.1276 78.5625 10.2422C78.6198 10.3516 78.7135 10.4531 78.8438 10.5469C78.974 10.6354 79.151 10.7188 79.375 10.7969C79.6042 10.875 79.8906 10.9505 80.2344 11.0234C80.8802 11.1589 81.4349 11.3333 81.8984 11.5469C82.3672 11.7552 82.7266 12.026 82.9766 12.3594C83.2266 12.6875 83.3516 13.1042 83.3516 13.6094C83.3516 13.9844 83.2708 14.3281 83.1094 14.6406C82.9531 14.9479 82.724 15.2161 82.4219 15.4453C82.1198 15.6693 81.7578 15.8438 81.3359 15.9688C80.9193 16.0938 80.4505 16.1562 79.9297 16.1562C79.1641 16.1562 78.5156 16.0208 77.9844 15.75C77.4531 15.474 77.0495 15.1224 76.7734 14.6953C76.5026 14.263 76.3672 13.8151 76.3672 13.3516H78.1875C78.2083 13.7005 78.3047 13.9792 78.4766 14.1875C78.6536 14.3906 78.8724 14.5391 79.1328 14.6328C79.3984 14.7214 79.6719 14.7656 79.9531 14.7656C80.2917 14.7656 80.5755 14.7214 80.8047 14.6328C81.0339 14.5391 81.2083 14.4141 81.3281 14.2578C81.4479 14.0964 81.5078 13.9141 81.5078 13.7109ZM89.7422 13.7109C89.7422 13.5234 89.6953 13.3542 89.6016 13.2031C89.5078 13.0469 89.3281 12.9062 89.0625 12.7812C88.8021 12.6562 88.4167 12.5417 87.9062 12.4375C87.4583 12.3385 87.0469 12.2214 86.6719 12.0859C86.3021 11.9453 85.9844 11.776 85.7188 11.5781C85.4531 11.3802 85.2474 11.1458 85.1016 10.875C84.9557 10.6042 84.8828 10.2917 84.8828 9.9375C84.8828 9.59375 84.9583 9.26823 85.1094 8.96094C85.2604 8.65365 85.4766 8.38281 85.7578 8.14844C86.0391 7.91406 86.3802 7.72917 86.7812 7.59375C87.1875 7.45833 87.6406 7.39062 88.1406 7.39062C88.849 7.39062 89.4557 7.51042 89.9609 7.75C90.4714 7.98438 90.862 8.30469 91.1328 8.71094C91.4036 9.11198 91.5391 9.5651 91.5391 10.0703H89.6562C89.6562 9.84635 89.599 9.63802 89.4844 9.44531C89.375 9.2474 89.2083 9.08854 88.9844 8.96875C88.7604 8.84375 88.4792 8.78125 88.1406 8.78125C87.8177 8.78125 87.5495 8.83333 87.3359 8.9375C87.1276 9.03646 86.9714 9.16667 86.8672 9.32812C86.7682 9.48958 86.7188 9.66667 86.7188 9.85938C86.7188 10 86.7448 10.1276 86.7969 10.2422C86.8542 10.3516 86.9479 10.4531 87.0781 10.5469C87.2083 10.6354 87.3854 10.7188 87.6094 10.7969C87.8385 10.875 88.125 10.9505 88.4688 11.0234C89.1146 11.1589 89.6693 11.3333 90.1328 11.5469C90.6016 11.7552 90.9609 12.026 91.2109 12.3594C91.4609 12.6875 91.5859 13.1042 91.5859 13.6094C91.5859 13.9844 91.5052 14.3281 91.3438 14.6406C91.1875 14.9479 90.9583 15.2161 90.6562 15.4453C90.3542 15.6693 89.9922 15.8438 89.5703 15.9688C89.1536 16.0938 88.6849 16.1562 88.1641 16.1562C87.3984 16.1562 86.75 16.0208 86.2188 15.75C85.6875 15.474 85.2839 15.1224 85.0078 14.6953C84.737 14.263 84.6016 13.8151 84.6016 13.3516H86.4219C86.4427 13.7005 86.5391 13.9792 86.7109 14.1875C86.888 14.3906 87.1068 14.5391 87.3672 14.6328C87.6328 14.7214 87.9062 14.7656 88.1875 14.7656C88.526 14.7656 88.8099 14.7214 89.0391 14.6328C89.2682 14.5391 89.4427 14.4141 89.5625 14.2578C89.6823 14.0964 89.7422 13.9141 89.7422 13.7109ZM98 14.3047V10.2734C98 9.97135 97.9453 9.71094 97.8359 9.49219C97.7266 9.27344 97.5599 9.10417 97.3359 8.98438C97.1172 8.86458 96.8411 8.80469 96.5078 8.80469C96.2005 8.80469 95.9349 8.85677 95.7109 8.96094C95.487 9.0651 95.3125 9.20573 95.1875 9.38281C95.0625 9.5599 95 9.76042 95 9.98438H93.125C93.125 9.65104 93.2057 9.32812 93.3672 9.01562C93.5286 8.70312 93.763 8.42448 94.0703 8.17969C94.3776 7.9349 94.7448 7.74219 95.1719 7.60156C95.599 7.46094 96.0781 7.39062 96.6094 7.39062C97.2448 7.39062 97.8073 7.4974 98.2969 7.71094C98.7917 7.92448 99.1797 8.2474 99.4609 8.67969C99.7474 9.10677 99.8906 9.64323 99.8906 10.2891V14.0469C99.8906 14.4323 99.9167 14.7786 99.9688 15.0859C100.026 15.388 100.107 15.651 100.211 15.875V16H98.2812C98.1927 15.7969 98.1224 15.5391 98.0703 15.2266C98.0234 14.9089 98 14.6016 98 14.3047ZM98.2734 10.8594L98.2891 12.0234H96.9375C96.5885 12.0234 96.2812 12.0573 96.0156 12.125C95.75 12.1875 95.5286 12.2812 95.3516 12.4062C95.1745 12.5312 95.0417 12.6823 94.9531 12.8594C94.8646 13.0365 94.8203 13.237 94.8203 13.4609C94.8203 13.6849 94.8724 13.8906 94.9766 14.0781C95.0807 14.2604 95.2318 14.4036 95.4297 14.5078C95.6328 14.612 95.8776 14.6641 96.1641 14.6641C96.5495 14.6641 96.8854 14.5859 97.1719 14.4297C97.4635 14.2682 97.6927 14.0729 97.8594 13.8438C98.026 13.6094 98.1146 13.388 98.125 13.1797L98.7344 14.0156C98.6719 14.2292 98.5651 14.4583 98.4141 14.7031C98.263 14.9479 98.0651 15.1823 97.8203 15.4062C97.5807 15.625 97.2917 15.8047 96.9531 15.9453C96.6198 16.0859 96.2344 16.1562 95.7969 16.1562C95.2448 16.1562 94.7526 16.0469 94.3203 15.8281C93.888 15.6042 93.5495 15.3047 93.3047 14.9297C93.0599 14.5495 92.9375 14.1198 92.9375 13.6406C92.9375 13.1927 93.0208 12.7969 93.1875 12.4531C93.3594 12.1042 93.6094 11.8125 93.9375 11.5781C94.2708 11.3438 94.6771 11.1667 95.1562 11.0469C95.6354 10.9219 96.1823 10.8594 96.7969 10.8594H98.2734ZM103.727 9.35156V16H101.844V7.54688H103.617L103.727 9.35156ZM103.391 11.4609L102.781 11.4531C102.786 10.8542 102.87 10.3047 103.031 9.80469C103.198 9.30469 103.427 8.875 103.719 8.51562C104.016 8.15625 104.37 7.88021 104.781 7.6875C105.193 7.48958 105.651 7.39062 106.156 7.39062C106.562 7.39062 106.93 7.44792 107.258 7.5625C107.591 7.67188 107.875 7.85156 108.109 8.10156C108.349 8.35156 108.531 8.67708 108.656 9.07812C108.781 9.47396 108.844 9.96094 108.844 10.5391V16H106.953V10.5312C106.953 10.125 106.893 9.80469 106.773 9.57031C106.659 9.33073 106.49 9.16146 106.266 9.0625C106.047 8.95833 105.773 8.90625 105.445 8.90625C105.122 8.90625 104.833 8.97396 104.578 9.10938C104.323 9.24479 104.107 9.42969 103.93 9.66406C103.758 9.89844 103.625 10.1693 103.531 10.4766C103.438 10.7839 103.391 11.112 103.391 11.4609ZM115.922 14.25V4H117.812V16H116.102L115.922 14.25ZM110.422 11.8672V11.7031C110.422 11.0625 110.497 10.4792 110.648 9.95312C110.799 9.42188 111.018 8.96615 111.305 8.58594C111.591 8.20052 111.94 7.90625 112.352 7.70312C112.763 7.49479 113.227 7.39062 113.742 7.39062C114.253 7.39062 114.701 7.48958 115.086 7.6875C115.471 7.88542 115.799 8.16927 116.07 8.53906C116.341 8.90365 116.557 9.34115 116.719 9.85156C116.88 10.3568 116.995 10.9193 117.062 11.5391V12.0625C116.995 12.6667 116.88 13.2188 116.719 13.7188C116.557 14.2188 116.341 14.651 116.07 15.0156C115.799 15.3802 115.469 15.6615 115.078 15.8594C114.693 16.0573 114.242 16.1562 113.727 16.1562C113.216 16.1562 112.755 16.0495 112.344 15.8359C111.938 15.6224 111.591 15.3229 111.305 14.9375C111.018 14.5521 110.799 14.099 110.648 13.5781C110.497 13.0521 110.422 12.4818 110.422 11.8672ZM112.305 11.7031V11.8672C112.305 12.2526 112.339 12.612 112.406 12.9453C112.479 13.2786 112.591 13.5729 112.742 13.8281C112.893 14.0781 113.089 14.276 113.328 14.4219C113.573 14.5625 113.865 14.6328 114.203 14.6328C114.63 14.6328 114.982 14.5391 115.258 14.3516C115.534 14.1641 115.75 13.9115 115.906 13.5938C116.068 13.2708 116.177 12.9115 116.234 12.5156V11.1016C116.203 10.7943 116.138 10.5078 116.039 10.2422C115.945 9.97656 115.818 9.74479 115.656 9.54688C115.495 9.34375 115.294 9.1875 115.055 9.07812C114.82 8.96354 114.542 8.90625 114.219 8.90625C113.875 8.90625 113.583 8.97917 113.344 9.125C113.104 9.27083 112.906 9.47135 112.75 9.72656C112.599 9.98177 112.487 10.2786 112.414 10.6172C112.341 10.9557 112.305 11.3177 112.305 11.7031ZM119.422 11.8672V11.6875C119.422 11.0781 119.51 10.513 119.688 9.99219C119.865 9.46615 120.12 9.01042 120.453 8.625C120.792 8.23438 121.203 7.93229 121.688 7.71875C122.177 7.5 122.729 7.39062 123.344 7.39062C123.964 7.39062 124.516 7.5 125 7.71875C125.49 7.93229 125.904 8.23438 126.242 8.625C126.581 9.01042 126.839 9.46615 127.016 9.99219C127.193 10.513 127.281 11.0781 127.281 11.6875V11.8672C127.281 12.4766 127.193 13.0417 127.016 13.5625C126.839 14.0833 126.581 14.5391 126.242 14.9297C125.904 15.3151 125.492 15.6172 125.008 15.8359C124.523 16.0495 123.974 16.1562 123.359 16.1562C122.74 16.1562 122.185 16.0495 121.695 15.8359C121.211 15.6172 120.799 15.3151 120.461 14.9297C120.122 14.5391 119.865 14.0833 119.688 13.5625C119.51 13.0417 119.422 12.4766 119.422 11.8672ZM121.305 11.6875V11.8672C121.305 12.2474 121.344 12.6068 121.422 12.9453C121.5 13.2839 121.622 13.5807 121.789 13.8359C121.956 14.0911 122.169 14.2917 122.43 14.4375C122.69 14.5833 123 14.6562 123.359 14.6562C123.708 14.6562 124.01 14.5833 124.266 14.4375C124.526 14.2917 124.74 14.0911 124.906 13.8359C125.073 13.5807 125.195 13.2839 125.273 12.9453C125.357 12.6068 125.398 12.2474 125.398 11.8672V11.6875C125.398 11.3125 125.357 10.9583 125.273 10.625C125.195 10.2865 125.07 9.98698 124.898 9.72656C124.732 9.46615 124.518 9.26302 124.258 9.11719C124.003 8.96615 123.698 8.89062 123.344 8.89062C122.99 8.89062 122.682 8.96615 122.422 9.11719C122.167 9.26302 121.956 9.46615 121.789 9.72656C121.622 9.98698 121.5 10.2865 121.422 10.625C121.344 10.9583 121.305 11.3125 121.305 11.6875Z" fill="black"/>
<path d="M234.281 4.625V16H232.336V4.625H234.281ZM237.852 4.625V6.1875H228.797V4.625H237.852ZM240.492 9.15625V16H238.609V7.54688H240.406L240.492 9.15625ZM243.078 7.49219L243.062 9.24219C242.948 9.22135 242.823 9.20573 242.688 9.19531C242.557 9.1849 242.427 9.17969 242.297 9.17969C241.974 9.17969 241.69 9.22656 241.445 9.32031C241.201 9.40885 240.995 9.53906 240.828 9.71094C240.667 9.8776 240.542 10.0807 240.453 10.3203C240.365 10.5599 240.312 10.8281 240.297 11.125L239.867 11.1562C239.867 10.625 239.919 10.1328 240.023 9.67969C240.128 9.22656 240.284 8.82812 240.492 8.48438C240.706 8.14062 240.971 7.8724 241.289 7.67969C241.612 7.48698 241.984 7.39062 242.406 7.39062C242.521 7.39062 242.643 7.40104 242.773 7.42188C242.909 7.44271 243.01 7.46615 243.078 7.49219ZM248.742 14.3047V10.2734C248.742 9.97135 248.688 9.71094 248.578 9.49219C248.469 9.27344 248.302 9.10417 248.078 8.98438C247.859 8.86458 247.583 8.80469 247.25 8.80469C246.943 8.80469 246.677 8.85677 246.453 8.96094C246.229 9.0651 246.055 9.20573 245.93 9.38281C245.805 9.5599 245.742 9.76042 245.742 9.98438H243.867C243.867 9.65104 243.948 9.32812 244.109 9.01562C244.271 8.70312 244.505 8.42448 244.812 8.17969C245.12 7.9349 245.487 7.74219 245.914 7.60156C246.341 7.46094 246.82 7.39062 247.352 7.39062C247.987 7.39062 248.549 7.4974 249.039 7.71094C249.534 7.92448 249.922 8.2474 250.203 8.67969C250.49 9.10677 250.633 9.64323 250.633 10.2891V14.0469C250.633 14.4323 250.659 14.7786 250.711 15.0859C250.768 15.388 250.849 15.651 250.953 15.875V16H249.023C248.935 15.7969 248.865 15.5391 248.812 15.2266C248.766 14.9089 248.742 14.6016 248.742 14.3047ZM249.016 10.8594L249.031 12.0234H247.68C247.331 12.0234 247.023 12.0573 246.758 12.125C246.492 12.1875 246.271 12.2812 246.094 12.4062C245.917 12.5312 245.784 12.6823 245.695 12.8594C245.607 13.0365 245.562 13.237 245.562 13.4609C245.562 13.6849 245.615 13.8906 245.719 14.0781C245.823 14.2604 245.974 14.4036 246.172 14.5078C246.375 14.612 246.62 14.6641 246.906 14.6641C247.292 14.6641 247.628 14.5859 247.914 14.4297C248.206 14.2682 248.435 14.0729 248.602 13.8438C248.768 13.6094 248.857 13.388 248.867 13.1797L249.477 14.0156C249.414 14.2292 249.307 14.4583 249.156 14.7031C249.005 14.9479 248.807 15.1823 248.562 15.4062C248.323 15.625 248.034 15.8047 247.695 15.9453C247.362 16.0859 246.977 16.1562 246.539 16.1562C245.987 16.1562 245.495 16.0469 245.062 15.8281C244.63 15.6042 244.292 15.3047 244.047 14.9297C243.802 14.5495 243.68 14.1198 243.68 13.6406C243.68 13.1927 243.763 12.7969 243.93 12.4531C244.102 12.1042 244.352 11.8125 244.68 11.5781C245.013 11.3438 245.419 11.1667 245.898 11.0469C246.378 10.9219 246.924 10.8594 247.539 10.8594H249.016ZM254.469 9.35156V16H252.586V7.54688H254.359L254.469 9.35156ZM254.133 11.4609L253.523 11.4531C253.529 10.8542 253.612 10.3047 253.773 9.80469C253.94 9.30469 254.169 8.875 254.461 8.51562C254.758 8.15625 255.112 7.88021 255.523 7.6875C255.935 7.48958 256.393 7.39062 256.898 7.39062C257.305 7.39062 257.672 7.44792 258 7.5625C258.333 7.67188 258.617 7.85156 258.852 8.10156C259.091 8.35156 259.273 8.67708 259.398 9.07812C259.523 9.47396 259.586 9.96094 259.586 10.5391V16H257.695V10.5312C257.695 10.125 257.635 9.80469 257.516 9.57031C257.401 9.33073 257.232 9.16146 257.008 9.0625C256.789 8.95833 256.516 8.90625 256.188 8.90625C255.865 8.90625 255.576 8.97396 255.32 9.10938C255.065 9.24479 254.849 9.42969 254.672 9.66406C254.5 9.89844 254.367 10.1693 254.273 10.4766C254.18 10.7839 254.133 11.112 254.133 11.4609ZM266.25 13.7109C266.25 13.5234 266.203 13.3542 266.109 13.2031C266.016 13.0469 265.836 12.9062 265.57 12.7812C265.31 12.6562 264.924 12.5417 264.414 12.4375C263.966 12.3385 263.555 12.2214 263.18 12.0859C262.81 11.9453 262.492 11.776 262.227 11.5781C261.961 11.3802 261.755 11.1458 261.609 10.875C261.464 10.6042 261.391 10.2917 261.391 9.9375C261.391 9.59375 261.466 9.26823 261.617 8.96094C261.768 8.65365 261.984 8.38281 262.266 8.14844C262.547 7.91406 262.888 7.72917 263.289 7.59375C263.695 7.45833 264.148 7.39062 264.648 7.39062C265.357 7.39062 265.964 7.51042 266.469 7.75C266.979 7.98438 267.37 8.30469 267.641 8.71094C267.911 9.11198 268.047 9.5651 268.047 10.0703H266.164C266.164 9.84635 266.107 9.63802 265.992 9.44531C265.883 9.2474 265.716 9.08854 265.492 8.96875C265.268 8.84375 264.987 8.78125 264.648 8.78125C264.326 8.78125 264.057 8.83333 263.844 8.9375C263.635 9.03646 263.479 9.16667 263.375 9.32812C263.276 9.48958 263.227 9.66667 263.227 9.85938C263.227 10 263.253 10.1276 263.305 10.2422C263.362 10.3516 263.456 10.4531 263.586 10.5469C263.716 10.6354 263.893 10.7188 264.117 10.7969C264.346 10.875 264.633 10.9505 264.977 11.0234C265.622 11.1589 266.177 11.3333 266.641 11.5469C267.109 11.7552 267.469 12.026 267.719 12.3594C267.969 12.6875 268.094 13.1042 268.094 13.6094C268.094 13.9844 268.013 14.3281 267.852 14.6406C267.695 14.9479 267.466 15.2161 267.164 15.4453C266.862 15.6693 266.5 15.8438 266.078 15.9688C265.661 16.0938 265.193 16.1562 264.672 16.1562C263.906 16.1562 263.258 16.0208 262.727 15.75C262.195 15.474 261.792 15.1224 261.516 14.6953C261.245 14.263 261.109 13.8151 261.109 13.3516H262.93C262.951 13.7005 263.047 13.9792 263.219 14.1875C263.396 14.3906 263.615 14.5391 263.875 14.6328C264.141 14.7214 264.414 14.7656 264.695 14.7656C265.034 14.7656 265.318 14.7214 265.547 14.6328C265.776 14.5391 265.951 14.4141 266.07 14.2578C266.19 14.0964 266.25 13.9141 266.25 13.7109ZM272.289 16H270.406V6.73438C270.406 6.10417 270.523 5.57552 270.758 5.14844C270.997 4.71615 271.339 4.39062 271.781 4.17188C272.224 3.94792 272.747 3.83594 273.352 3.83594C273.539 3.83594 273.724 3.84896 273.906 3.875C274.089 3.89583 274.266 3.92969 274.438 3.97656L274.391 5.42969C274.286 5.40365 274.172 5.38542 274.047 5.375C273.927 5.36458 273.797 5.35938 273.656 5.35938C273.37 5.35938 273.122 5.41406 272.914 5.52344C272.711 5.6276 272.555 5.78125 272.445 5.98438C272.341 6.1875 272.289 6.4375 272.289 6.73438V16ZM274.031 7.54688V8.92188H269.109V7.54688H274.031ZM278.938 16.1562C278.312 16.1562 277.747 16.0547 277.242 15.8516C276.742 15.6432 276.315 15.3542 275.961 14.9844C275.612 14.6146 275.344 14.1797 275.156 13.6797C274.969 13.1797 274.875 12.6406 274.875 12.0625V11.75C274.875 11.0885 274.971 10.4896 275.164 9.95312C275.357 9.41667 275.625 8.95833 275.969 8.57812C276.312 8.19271 276.719 7.89844 277.188 7.69531C277.656 7.49219 278.164 7.39062 278.711 7.39062C279.315 7.39062 279.844 7.49219 280.297 7.69531C280.75 7.89844 281.125 8.1849 281.422 8.55469C281.724 8.91927 281.948 9.35417 282.094 9.85938C282.245 10.3646 282.32 10.9219 282.32 11.5312V12.3359H275.789V10.9844H280.461V10.8359C280.451 10.4974 280.383 10.1797 280.258 9.88281C280.138 9.58594 279.953 9.34635 279.703 9.16406C279.453 8.98177 279.12 8.89062 278.703 8.89062C278.391 8.89062 278.112 8.95833 277.867 9.09375C277.628 9.22396 277.427 9.41406 277.266 9.66406C277.104 9.91406 276.979 10.2161 276.891 10.5703C276.807 10.9193 276.766 11.3125 276.766 11.75V12.0625C276.766 12.4323 276.815 12.776 276.914 13.0938C277.018 13.4062 277.169 13.6797 277.367 13.9141C277.565 14.1484 277.805 14.3333 278.086 14.4688C278.367 14.599 278.688 14.6641 279.047 14.6641C279.5 14.6641 279.904 14.5729 280.258 14.3906C280.612 14.2083 280.919 13.9505 281.18 13.6172L282.172 14.5781C281.99 14.8438 281.753 15.099 281.461 15.3438C281.169 15.5833 280.812 15.7786 280.391 15.9297C279.974 16.0807 279.49 16.1562 278.938 16.1562ZM285.68 9.15625V16H283.797V7.54688H285.594L285.68 9.15625ZM288.266 7.49219L288.25 9.24219C288.135 9.22135 288.01 9.20573 287.875 9.19531C287.745 9.1849 287.615 9.17969 287.484 9.17969C287.161 9.17969 286.878 9.22656 286.633 9.32031C286.388 9.40885 286.182 9.53906 286.016 9.71094C285.854 9.8776 285.729 10.0807 285.641 10.3203C285.552 10.5599 285.5 10.8281 285.484 11.125L285.055 11.1562C285.055 10.625 285.107 10.1328 285.211 9.67969C285.315 9.22656 285.471 8.82812 285.68 8.48438C285.893 8.14062 286.159 7.8724 286.477 7.67969C286.799 7.48698 287.172 7.39062 287.594 7.39062C287.708 7.39062 287.831 7.40104 287.961 7.42188C288.096 7.44271 288.198 7.46615 288.266 7.49219ZM291.461 7.54688V16H289.57V7.54688H291.461ZM289.445 5.32812C289.445 5.04167 289.539 4.80469 289.727 4.61719C289.919 4.42448 290.185 4.32812 290.523 4.32812C290.857 4.32812 291.12 4.42448 291.312 4.61719C291.505 4.80469 291.602 5.04167 291.602 5.32812C291.602 5.60938 291.505 5.84375 291.312 6.03125C291.12 6.21875 290.857 6.3125 290.523 6.3125C290.185 6.3125 289.919 6.21875 289.727 6.03125C289.539 5.84375 289.445 5.60938 289.445 5.32812ZM295.391 9.35156V16H293.508V7.54688H295.281L295.391 9.35156ZM295.055 11.4609L294.445 11.4531C294.451 10.8542 294.534 10.3047 294.695 9.80469C294.862 9.30469 295.091 8.875 295.383 8.51562C295.68 8.15625 296.034 7.88021 296.445 7.6875C296.857 7.48958 297.315 7.39062 297.82 7.39062C298.227 7.39062 298.594 7.44792 298.922 7.5625C299.255 7.67188 299.539 7.85156 299.773 8.10156C300.013 8.35156 300.195 8.67708 300.32 9.07812C300.445 9.47396 300.508 9.96094 300.508 10.5391V16H298.617V10.5312C298.617 10.125 298.557 9.80469 298.438 9.57031C298.323 9.33073 298.154 9.16146 297.93 9.0625C297.711 8.95833 297.438 8.90625 297.109 8.90625C296.786 8.90625 296.497 8.97396 296.242 9.10938C295.987 9.24479 295.771 9.42969 295.594 9.66406C295.422 9.89844 295.289 10.1693 295.195 10.4766C295.102 10.7839 295.055 11.112 295.055 11.4609ZM307.586 14.25V4H309.477V16H307.766L307.586 14.25ZM302.086 11.8672V11.7031C302.086 11.0625 302.161 10.4792 302.312 9.95312C302.464 9.42188 302.682 8.96615 302.969 8.58594C303.255 8.20052 303.604 7.90625 304.016 7.70312C304.427 7.49479 304.891 7.39062 305.406 7.39062C305.917 7.39062 306.365 7.48958 306.75 7.6875C307.135 7.88542 307.464 8.16927 307.734 8.53906C308.005 8.90365 308.221 9.34115 308.383 9.85156C308.544 10.3568 308.659 10.9193 308.727 11.5391V12.0625C308.659 12.6667 308.544 13.2188 308.383 13.7188C308.221 14.2188 308.005 14.651 307.734 15.0156C307.464 15.3802 307.133 15.6615 306.742 15.8594C306.357 16.0573 305.906 16.1562 305.391 16.1562C304.88 16.1562 304.419 16.0495 304.008 15.8359C303.602 15.6224 303.255 15.3229 302.969 14.9375C302.682 14.5521 302.464 14.099 302.312 13.5781C302.161 13.0521 302.086 12.4818 302.086 11.8672ZM303.969 11.7031V11.8672C303.969 12.2526 304.003 12.612 304.07 12.9453C304.143 13.2786 304.255 13.5729 304.406 13.8281C304.557 14.0781 304.753 14.276 304.992 14.4219C305.237 14.5625 305.529 14.6328 305.867 14.6328C306.294 14.6328 306.646 14.5391 306.922 14.3516C307.198 14.1641 307.414 13.9115 307.57 13.5938C307.732 13.2708 307.841 12.9115 307.898 12.5156V11.1016C307.867 10.7943 307.802 10.5078 307.703 10.2422C307.609 9.97656 307.482 9.74479 307.32 9.54688C307.159 9.34375 306.958 9.1875 306.719 9.07812C306.484 8.96354 306.206 8.90625 305.883 8.90625C305.539 8.90625 305.247 8.97917 305.008 9.125C304.768 9.27083 304.57 9.47135 304.414 9.72656C304.263 9.98177 304.151 10.2786 304.078 10.6172C304.005 10.9557 303.969 11.3177 303.969 11.7031ZM311.086 11.8672V11.6875C311.086 11.0781 311.174 10.513 311.352 9.99219C311.529 9.46615 311.784 9.01042 312.117 8.625C312.456 8.23438 312.867 7.93229 313.352 7.71875C313.841 7.5 314.393 7.39062 315.008 7.39062C315.628 7.39062 316.18 7.5 316.664 7.71875C317.154 7.93229 317.568 8.23438 317.906 8.625C318.245 9.01042 318.503 9.46615 318.68 9.99219C318.857 10.513 318.945 11.0781 318.945 11.6875V11.8672C318.945 12.4766 318.857 13.0417 318.68 13.5625C318.503 14.0833 318.245 14.5391 317.906 14.9297C317.568 15.3151 317.156 15.6172 316.672 15.8359C316.188 16.0495 315.638 16.1562 315.023 16.1562C314.404 16.1562 313.849 16.0495 313.359 15.8359C312.875 15.6172 312.464 15.3151 312.125 14.9297C311.786 14.5391 311.529 14.0833 311.352 13.5625C311.174 13.0417 311.086 12.4766 311.086 11.8672ZM312.969 11.6875V11.8672C312.969 12.2474 313.008 12.6068 313.086 12.9453C313.164 13.2839 313.286 13.5807 313.453 13.8359C313.62 14.0911 313.833 14.2917 314.094 14.4375C314.354 14.5833 314.664 14.6562 315.023 14.6562C315.372 14.6562 315.674 14.5833 315.93 14.4375C316.19 14.2917 316.404 14.0911 316.57 13.8359C316.737 13.5807 316.859 13.2839 316.938 12.9453C317.021 12.6068 317.062 12.2474 317.062 11.8672V11.6875C317.062 11.3125 317.021 10.9583 316.938 10.625C316.859 10.2865 316.734 9.98698 316.562 9.72656C316.396 9.46615 316.182 9.26302 315.922 9.11719C315.667 8.96615 315.362 8.89062 315.008 8.89062C314.654 8.89062 314.346 8.96615 314.086 9.11719C313.831 9.26302 313.62 9.46615 313.453 9.72656C313.286 9.98698 313.164 10.2865 313.086 10.625C313.008 10.9583 312.969 11.3125 312.969 11.6875Z" fill="black"/>
<path d="M428.344 12.2969H430.297C430.234 13.0417 430.026 13.7057 429.672 14.2891C429.318 14.8672 428.82 15.3229 428.18 15.6562C427.539 15.9896 426.76 16.1562 425.844 16.1562C425.141 16.1562 424.508 16.0312 423.945 15.7812C423.383 15.526 422.901 15.1667 422.5 14.7031C422.099 14.2344 421.792 13.6693 421.578 13.0078C421.37 12.3464 421.266 11.6068 421.266 10.7891V9.84375C421.266 9.02604 421.372 8.28646 421.586 7.625C421.805 6.96354 422.117 6.39844 422.523 5.92969C422.93 5.45573 423.417 5.09375 423.984 4.84375C424.557 4.59375 425.201 4.46875 425.914 4.46875C426.82 4.46875 427.586 4.63542 428.211 4.96875C428.836 5.30208 429.32 5.76302 429.664 6.35156C430.013 6.9401 430.227 7.61458 430.305 8.375H428.352C428.299 7.88542 428.185 7.46615 428.008 7.11719C427.836 6.76823 427.581 6.5026 427.242 6.32031C426.904 6.13281 426.461 6.03906 425.914 6.03906C425.466 6.03906 425.076 6.1224 424.742 6.28906C424.409 6.45573 424.13 6.70052 423.906 7.02344C423.682 7.34635 423.513 7.74479 423.398 8.21875C423.289 8.6875 423.234 9.22396 423.234 9.82812V10.7891C423.234 11.362 423.284 11.8828 423.383 12.3516C423.487 12.8151 423.643 13.2135 423.852 13.5469C424.065 13.8802 424.336 14.138 424.664 14.3203C424.992 14.5026 425.385 14.5938 425.844 14.5938C426.401 14.5938 426.852 14.5052 427.195 14.3281C427.544 14.151 427.807 13.8932 427.984 13.5547C428.167 13.2109 428.286 12.7917 428.344 12.2969ZM431.531 11.8672V11.6875C431.531 11.0781 431.62 10.513 431.797 9.99219C431.974 9.46615 432.229 9.01042 432.562 8.625C432.901 8.23438 433.312 7.93229 433.797 7.71875C434.286 7.5 434.839 7.39062 435.453 7.39062C436.073 7.39062 436.625 7.5 437.109 7.71875C437.599 7.93229 438.013 8.23438 438.352 8.625C438.69 9.01042 438.948 9.46615 439.125 9.99219C439.302 10.513 439.391 11.0781 439.391 11.6875V11.8672C439.391 12.4766 439.302 13.0417 439.125 13.5625C438.948 14.0833 438.69 14.5391 438.352 14.9297C438.013 15.3151 437.602 15.6172 437.117 15.8359C436.633 16.0495 436.083 16.1562 435.469 16.1562C434.849 16.1562 434.294 16.0495 433.805 15.8359C433.32 15.6172 432.909 15.3151 432.57 14.9297C432.232 14.5391 431.974 14.0833 431.797 13.5625C431.62 13.0417 431.531 12.4766 431.531 11.8672ZM433.414 11.6875V11.8672C433.414 12.2474 433.453 12.6068 433.531 12.9453C433.609 13.2839 433.732 13.5807 433.898 13.8359C434.065 14.0911 434.279 14.2917 434.539 14.4375C434.799 14.5833 435.109 14.6562 435.469 14.6562C435.818 14.6562 436.12 14.5833 436.375 14.4375C436.635 14.2917 436.849 14.0911 437.016 13.8359C437.182 13.5807 437.305 13.2839 437.383 12.9453C437.466 12.6068 437.508 12.2474 437.508 11.8672V11.6875C437.508 11.3125 437.466 10.9583 437.383 10.625C437.305 10.2865 437.18 9.98698 437.008 9.72656C436.841 9.46615 436.628 9.26302 436.367 9.11719C436.112 8.96615 435.807 8.89062 435.453 8.89062C435.099 8.89062 434.792 8.96615 434.531 9.11719C434.276 9.26302 434.065 9.46615 433.898 9.72656C433.732 9.98698 433.609 10.2865 433.531 10.625C433.453 10.9583 433.414 11.3125 433.414 11.6875ZM442.836 9.35156V16H440.953V7.54688H442.727L442.836 9.35156ZM442.5 11.4609L441.891 11.4531C441.896 10.8542 441.979 10.3047 442.141 9.80469C442.307 9.30469 442.536 8.875 442.828 8.51562C443.125 8.15625 443.479 7.88021 443.891 7.6875C444.302 7.48958 444.76 7.39062 445.266 7.39062C445.672 7.39062 446.039 7.44792 446.367 7.5625C446.701 7.67188 446.984 7.85156 447.219 8.10156C447.458 8.35156 447.641 8.67708 447.766 9.07812C447.891 9.47396 447.953 9.96094 447.953 10.5391V16H446.062V10.5312C446.062 10.125 446.003 9.80469 445.883 9.57031C445.768 9.33073 445.599 9.16146 445.375 9.0625C445.156 8.95833 444.883 8.90625 444.555 8.90625C444.232 8.90625 443.943 8.97396 443.688 9.10938C443.432 9.24479 443.216 9.42969 443.039 9.66406C442.867 9.89844 442.734 10.1693 442.641 10.4766C442.547 10.7839 442.5 11.112 442.5 11.4609ZM453.328 14.6562C453.635 14.6562 453.911 14.5964 454.156 14.4766C454.406 14.3516 454.607 14.1797 454.758 13.9609C454.914 13.7422 455 13.4896 455.016 13.2031H456.789C456.779 13.75 456.617 14.2474 456.305 14.6953C455.992 15.1432 455.578 15.5 455.062 15.7656C454.547 16.026 453.977 16.1562 453.352 16.1562C452.706 16.1562 452.143 16.0469 451.664 15.8281C451.185 15.6042 450.786 15.2969 450.469 14.9062C450.151 14.5156 449.911 14.0651 449.75 13.5547C449.594 13.0443 449.516 12.4974 449.516 11.9141V11.6406C449.516 11.0573 449.594 10.5104 449.75 10C449.911 9.48438 450.151 9.03125 450.469 8.64062C450.786 8.25 451.185 7.94531 451.664 7.72656C452.143 7.5026 452.703 7.39062 453.344 7.39062C454.021 7.39062 454.615 7.52604 455.125 7.79688C455.635 8.0625 456.036 8.4349 456.328 8.91406C456.625 9.38802 456.779 9.9401 456.789 10.5703H455.016C455 10.2578 454.922 9.97656 454.781 9.72656C454.646 9.47135 454.453 9.26823 454.203 9.11719C453.958 8.96615 453.664 8.89062 453.32 8.89062C452.94 8.89062 452.625 8.96875 452.375 9.125C452.125 9.27604 451.93 9.48438 451.789 9.75C451.648 10.0104 451.547 10.3047 451.484 10.6328C451.427 10.9557 451.398 11.2917 451.398 11.6406V11.9141C451.398 12.263 451.427 12.6016 451.484 12.9297C451.542 13.2578 451.641 13.5521 451.781 13.8125C451.927 14.0677 452.125 14.2734 452.375 14.4297C452.625 14.5807 452.943 14.6562 453.328 14.6562ZM460.25 4V16H458.359V4H460.25ZM467.398 14.0078V7.54688H469.289V16H467.508L467.398 14.0078ZM467.664 12.25L468.297 12.2344C468.297 12.8021 468.234 13.3255 468.109 13.8047C467.984 14.2786 467.792 14.6927 467.531 15.0469C467.271 15.3958 466.938 15.6693 466.531 15.8672C466.125 16.0599 465.638 16.1562 465.07 16.1562C464.659 16.1562 464.281 16.0964 463.938 15.9766C463.594 15.8568 463.297 15.6719 463.047 15.4219C462.802 15.1719 462.612 14.8464 462.477 14.4453C462.341 14.0443 462.273 13.5651 462.273 13.0078V7.54688H464.156V13.0234C464.156 13.3307 464.193 13.5885 464.266 13.7969C464.339 14 464.438 14.1641 464.562 14.2891C464.688 14.4141 464.833 14.5026 465 14.5547C465.167 14.6068 465.344 14.6328 465.531 14.6328C466.068 14.6328 466.49 14.5286 466.797 14.3203C467.109 14.1068 467.331 13.8203 467.461 13.4609C467.596 13.1016 467.664 12.6979 467.664 12.25ZM473.258 7.54688V16H471.375V7.54688H473.258ZM471.391 6.42188L472.914 4.07031H475.039L472.914 6.42188H471.391ZM480.562 14.25V4H482.453V16H480.742L480.562 14.25ZM475.062 11.8672V11.7031C475.062 11.0625 475.138 10.4792 475.289 9.95312C475.44 9.42188 475.659 8.96615 475.945 8.58594C476.232 8.20052 476.581 7.90625 476.992 7.70312C477.404 7.49479 477.867 7.39062 478.383 7.39062C478.893 7.39062 479.341 7.48958 479.727 7.6875C480.112 7.88542 480.44 8.16927 480.711 8.53906C480.982 8.90365 481.198 9.34115 481.359 9.85156C481.521 10.3568 481.635 10.9193 481.703 11.5391V12.0625C481.635 12.6667 481.521 13.2188 481.359 13.7188C481.198 14.2188 480.982 14.651 480.711 15.0156C480.44 15.3802 480.109 15.6615 479.719 15.8594C479.333 16.0573 478.883 16.1562 478.367 16.1562C477.857 16.1562 477.396 16.0495 476.984 15.8359C476.578 15.6224 476.232 15.3229 475.945 14.9375C475.659 14.5521 475.44 14.099 475.289 13.5781C475.138 13.0521 475.062 12.4818 475.062 11.8672ZM476.945 11.7031V11.8672C476.945 12.2526 476.979 12.612 477.047 12.9453C477.12 13.2786 477.232 13.5729 477.383 13.8281C477.534 14.0781 477.729 14.276 477.969 14.4219C478.214 14.5625 478.505 14.6328 478.844 14.6328C479.271 14.6328 479.622 14.5391 479.898 14.3516C480.174 14.1641 480.391 13.9115 480.547 13.5938C480.708 13.2708 480.818 12.9115 480.875 12.5156V11.1016C480.844 10.7943 480.779 10.5078 480.68 10.2422C480.586 9.97656 480.458 9.74479 480.297 9.54688C480.135 9.34375 479.935 9.1875 479.695 9.07812C479.461 8.96354 479.182 8.90625 478.859 8.90625C478.516 8.90625 478.224 8.97917 477.984 9.125C477.745 9.27083 477.547 9.47135 477.391 9.72656C477.24 9.98177 477.128 10.2786 477.055 10.6172C476.982 10.9557 476.945 11.3177 476.945 11.7031ZM484.062 11.8672V11.6875C484.062 11.0781 484.151 10.513 484.328 9.99219C484.505 9.46615 484.76 9.01042 485.094 8.625C485.432 8.23438 485.844 7.93229 486.328 7.71875C486.818 7.5 487.37 7.39062 487.984 7.39062C488.604 7.39062 489.156 7.5 489.641 7.71875C490.13 7.93229 490.544 8.23438 490.883 8.625C491.221 9.01042 491.479 9.46615 491.656 9.99219C491.833 10.513 491.922 11.0781 491.922 11.6875V11.8672C491.922 12.4766 491.833 13.0417 491.656 13.5625C491.479 14.0833 491.221 14.5391 490.883 14.9297C490.544 15.3151 490.133 15.6172 489.648 15.8359C489.164 16.0495 488.615 16.1562 488 16.1562C487.38 16.1562 486.826 16.0495 486.336 15.8359C485.852 15.6172 485.44 15.3151 485.102 14.9297C484.763 14.5391 484.505 14.0833 484.328 13.5625C484.151 13.0417 484.062 12.4766 484.062 11.8672ZM485.945 11.6875V11.8672C485.945 12.2474 485.984 12.6068 486.062 12.9453C486.141 13.2839 486.263 13.5807 486.43 13.8359C486.596 14.0911 486.81 14.2917 487.07 14.4375C487.331 14.5833 487.641 14.6562 488 14.6562C488.349 14.6562 488.651 14.5833 488.906 14.4375C489.167 14.2917 489.38 14.0911 489.547 13.8359C489.714 13.5807 489.836 13.2839 489.914 12.9453C489.997 12.6068 490.039 12.2474 490.039 11.8672V11.6875C490.039 11.3125 489.997 10.9583 489.914 10.625C489.836 10.2865 489.711 9.98698 489.539 9.72656C489.372 9.46615 489.159 9.26302 488.898 9.11719C488.643 8.96615 488.339 8.89062 487.984 8.89062C487.63 8.89062 487.323 8.96615 487.062 9.11719C486.807 9.26302 486.596 9.46615 486.43 9.72656C486.263 9.98698 486.141 10.2865 486.062 10.625C485.984 10.9583 485.945 11.3125 485.945 11.6875Z" fill="black"/>
<rect y="45" width="547" height="6" rx="3" fill="#D9D9D9"/>
<path d="M0 48C0 46.3431 1.34315 45 3 45H149V51H3C1.34314 51 0 49.6569 0 48Z" fill="#009FE3"/>
</svg>
