<svg width="28" height="28" viewBox="0 0 28 28" fill="none" xmlns="http://www.w3.org/2000/svg">
<path fill-rule="evenodd" clip-rule="evenodd" d="M1.09835 4.09835C1.80161 3.39509 2.75544 3 3.75 3H12.5C13.1904 3 13.75 3.55964 13.75 4.25C13.75 4.94036 13.1904 5.5 12.5 5.5H3.75C3.41848 5.5 3.10054 5.6317 2.86612 5.86612C2.6317 6.10054 2.5 6.41848 2.5 6.75V24.25C2.5 24.5815 2.6317 24.8995 2.86612 25.1339C3.10054 25.3683 3.41848 25.5 3.75 25.5H21.25C21.5815 25.5 21.8995 25.3683 22.1339 25.1339C22.3683 24.8995 22.5 24.5815 22.5 24.25V15.5C22.5 14.8096 23.0596 14.25 23.75 14.25C24.4404 14.25 25 14.8096 25 15.5V24.25C25 25.2446 24.6049 26.1984 23.9017 26.9017C23.1984 27.6049 22.2446 28 21.25 28H3.75C2.75544 28 1.80161 27.6049 1.09835 26.9017C0.395088 26.1984 0 25.2446 0 24.25V6.75C0 5.75544 0.395088 4.80161 1.09835 4.09835Z" fill="#454545"/>
<path fill-rule="evenodd" clip-rule="evenodd" d="M24.3213 2.35712C23.9708 2.35712 23.6347 2.49636 23.3869 2.7442L12.4213 13.7097L11.7984 16.2016L14.2903 15.5787L25.2558 4.61314C25.5036 4.3653 25.6429 4.02916 25.6429 3.67867C25.6429 3.32817 25.5036 2.99203 25.2558 2.7442C25.008 2.49636 24.6718 2.35712 24.3213 2.35712ZM21.7201 1.07746C22.41 0.387573 23.3457 0 24.3213 0C25.297 0 26.2327 0.387573 26.9225 1.07746C27.6124 1.76734 28 2.70302 28 3.67867C28 4.65431 27.6124 5.59 26.9225 6.27988L15.7262 17.4762C15.5752 17.6273 15.3859 17.7344 15.1787 17.7862L10.4644 18.9648C10.0628 19.0652 9.63795 18.9475 9.34522 18.6548C9.05249 18.3621 8.93481 17.9372 9.03521 17.5356L10.2138 12.8213C10.2656 12.6141 10.3727 12.4248 10.5238 12.2738L21.7201 1.07746Z" fill="#454545"/>
</svg>
